<svg width="255" height="48" viewBox="0 0 255 48" fill="none" xmlns="http://www.w3.org/2000/svg">
<path d="M2.4 38V10H12.06C13.4467 10 14.7067 10.2867 15.84 10.86C16.9867 11.42 17.8933 12.24 18.56 13.32C19.2267 14.4 19.56 15.6933 19.56 17.2C19.56 18.0133 19.42 18.8 19.14 19.56C18.8733 20.3067 18.5 20.9533 18.02 21.5C17.5533 22.0333 17.02 22.3933 16.42 22.58C17.26 22.7933 17.9733 23.1733 18.56 23.72C19.1467 24.2533 19.62 24.88 19.98 25.6C20.3533 26.32 20.62 27.0733 20.78 27.86C20.94 28.6467 21.02 29.4067 21.02 30.14C21.02 31.6867 20.6667 33.0533 19.96 34.24C19.2667 35.4133 18.3333 36.3333 17.16 37C15.9867 37.6667 14.6933 38 13.28 38H2.4ZM5.76 35.04H12.98C13.9 35.04 14.7333 34.8067 15.48 34.34C16.24 33.86 16.8467 33.2067 17.3 32.38C17.7533 31.5533 17.98 30.62 17.98 29.58C17.98 28.66 17.7533 27.7933 17.3 26.98C16.8467 26.1533 16.24 25.4867 15.48 24.98C14.7333 24.4733 13.9 24.22 12.98 24.22H5.76V35.04ZM5.76 21.32H11.74C12.9667 21.32 14.0133 20.96 14.88 20.24C15.76 19.5067 16.2 18.4867 16.2 17.18C16.2 15.7667 15.76 14.7133 14.88 14.02C14.0133 13.3133 12.9667 12.96 11.74 12.96H5.76V21.32ZM40.2378 18H43.5978V38H40.2378L40.0978 34.62C39.4711 35.78 38.6045 36.72 37.4978 37.44C36.4045 38.16 35.0978 38.52 33.5778 38.52C32.1111 38.52 30.7378 38.2467 29.4578 37.7C28.1778 37.14 27.0445 36.3733 26.0578 35.4C25.0845 34.4133 24.3245 33.28 23.7778 32C23.2311 30.72 22.9578 29.34 22.9578 27.86C22.9578 26.4333 23.2245 25.0867 23.7578 23.82C24.2911 22.5533 25.0311 21.4467 25.9778 20.5C26.9378 19.54 28.0445 18.7933 29.2978 18.26C30.5511 17.7133 31.8978 17.44 33.3378 17.44C34.9111 17.44 36.2911 17.8133 37.4778 18.56C38.6645 19.2933 39.6245 20.2467 40.3578 21.42L40.2378 18ZM33.5178 35.26C34.8378 35.26 35.9778 34.94 36.9378 34.3C37.9111 33.6467 38.6578 32.7667 39.1778 31.66C39.7111 30.5533 39.9778 29.3333 39.9778 28C39.9778 26.64 39.7111 25.4133 39.1778 24.32C38.6445 23.2133 37.8911 22.34 36.9178 21.7C35.9578 21.0467 34.8245 20.72 33.5178 20.72C32.1978 20.72 30.9978 21.0467 29.9178 21.7C28.8378 22.3533 27.9778 23.2333 27.3378 24.34C26.7111 25.4333 26.3978 26.6533 26.3978 28C26.3978 29.3467 26.7245 30.5733 27.3778 31.68C28.0311 32.7733 28.8978 33.6467 29.9778 34.3C31.0578 34.94 32.2378 35.26 33.5178 35.26ZM62.8247 18H66.1847V38.64C66.1847 39.96 65.898 41.1867 65.3247 42.32C64.7647 43.4667 64.0047 44.46 63.0447 45.3C62.0847 46.1533 60.9914 46.8133 59.7647 47.28C58.538 47.76 57.258 48 55.9247 48C54.538 48 53.198 47.6867 51.9047 47.06C50.6114 46.4467 49.478 45.62 48.5047 44.58C47.5447 43.5533 46.8514 42.4 46.4247 41.12L49.5047 39.72C49.758 40.64 50.2114 41.4667 50.8647 42.2C51.5314 42.9467 52.3047 43.5333 53.1847 43.96C54.078 44.4 54.9914 44.62 55.9247 44.62C56.8047 44.62 57.6514 44.4667 58.4647 44.16C59.2914 43.8533 60.0314 43.4267 60.6847 42.88C61.3514 42.3467 61.8714 41.7133 62.2447 40.98C62.6314 40.26 62.8247 39.48 62.8247 38.64V34.66C62.1447 35.8067 61.2447 36.74 60.1247 37.46C59.018 38.1667 57.7247 38.52 56.2447 38.52C54.8314 38.52 53.5047 38.2467 52.2647 37.7C51.0247 37.1533 49.938 36.4 49.0047 35.44C48.0714 34.4667 47.338 33.3467 46.8047 32.08C46.2714 30.8133 46.0047 29.4533 46.0047 28C46.0047 26.5467 46.2714 25.1867 46.8047 23.92C47.338 22.64 48.0714 21.52 49.0047 20.56C49.938 19.5867 51.0247 18.8267 52.2647 18.28C53.5047 17.7333 54.8314 17.46 56.2447 17.46C57.7247 17.46 59.018 17.8133 60.1247 18.52C61.2447 19.2267 62.1447 20.16 62.8247 21.32V18ZM56.2647 35.26C57.558 35.26 58.678 34.9267 59.6247 34.26C60.5847 33.5933 61.3247 32.7067 61.8447 31.6C62.3647 30.4933 62.6247 29.2933 62.6247 28C62.6247 26.6667 62.358 25.4533 61.8247 24.36C61.3047 23.2533 60.5647 22.3733 59.6047 21.72C58.658 21.0533 57.5447 20.72 56.2647 20.72C55.0114 20.72 53.8647 21.0467 52.8247 21.7C51.7847 22.3533 50.958 23.2333 50.3447 24.34C49.7447 25.4333 49.4447 26.6533 49.4447 28C49.4447 29.3467 49.7514 30.5733 50.3647 31.68C50.9914 32.7733 51.818 33.6467 52.8447 34.3C53.8847 34.94 55.0247 35.26 56.2647 35.26ZM86.3403 18H89.7003V38.64C89.7003 39.96 89.4136 41.1867 88.8403 42.32C88.2803 43.4667 87.5203 44.46 86.5603 45.3C85.6003 46.1533 84.507 46.8133 83.2803 47.28C82.0536 47.76 80.7736 48 79.4403 48C78.0536 48 76.7136 47.6867 75.4203 47.06C74.127 46.4467 72.9936 45.62 72.0203 44.58C71.0603 43.5533 70.367 42.4 69.9403 41.12L73.0203 39.72C73.2736 40.64 73.727 41.4667 74.3803 42.2C75.047 42.9467 75.8203 43.5333 76.7003 43.96C77.5936 44.4 78.507 44.62 79.4403 44.62C80.3203 44.62 81.167 44.4667 81.9803 44.16C82.807 43.8533 83.547 43.4267 84.2003 42.88C84.867 42.3467 85.387 41.7133 85.7603 40.98C86.147 40.26 86.3403 39.48 86.3403 38.64V34.66C85.6603 35.8067 84.7603 36.74 83.6403 37.46C82.5336 38.1667 81.2403 38.52 79.7603 38.52C78.347 38.52 77.0203 38.2467 75.7803 37.7C74.5403 37.1533 73.4536 36.4 72.5203 35.44C71.587 34.4667 70.8536 33.3467 70.3203 32.08C69.787 30.8133 69.5203 29.4533 69.5203 28C69.5203 26.5467 69.787 25.1867 70.3203 23.92C70.8536 22.64 71.587 21.52 72.5203 20.56C73.4536 19.5867 74.5403 18.8267 75.7803 18.28C77.0203 17.7333 78.347 17.46 79.7603 17.46C81.2403 17.46 82.5336 17.8133 83.6403 18.52C84.7603 19.2267 85.6603 20.16 86.3403 21.32V18ZM79.7803 35.26C81.0736 35.26 82.1936 34.9267 83.1403 34.26C84.1003 33.5933 84.8403 32.7067 85.3603 31.6C85.8803 30.4933 86.1403 29.2933 86.1403 28C86.1403 26.6667 85.8736 25.4533 85.3403 24.36C84.8203 23.2533 84.0803 22.3733 83.1203 21.72C82.1736 21.0533 81.0603 20.72 79.7803 20.72C78.527 20.72 77.3803 21.0467 76.3403 21.7C75.3003 22.3533 74.4736 23.2333 73.8603 24.34C73.2603 25.4333 72.9603 26.6533 72.9603 28C72.9603 29.3467 73.267 30.5733 73.8803 31.68C74.507 32.7733 75.3336 33.6467 76.3603 34.3C77.4003 34.94 78.5403 35.26 79.7803 35.26ZM110.316 18H113.676V38H110.316L110.176 34.62C109.549 35.78 108.683 36.72 107.576 37.44C106.483 38.16 105.176 38.52 103.656 38.52C102.189 38.52 100.816 38.2467 99.5359 37.7C98.2559 37.14 97.1226 36.3733 96.1359 35.4C95.1626 34.4133 94.4026 33.28 93.8559 32C93.3093 30.72 93.0359 29.34 93.0359 27.86C93.0359 26.4333 93.3026 25.0867 93.8359 23.82C94.3693 22.5533 95.1093 21.4467 96.0559 20.5C97.0159 19.54 98.1226 18.7933 99.3759 18.26C100.629 17.7133 101.976 17.44 103.416 17.44C104.989 17.44 106.369 17.8133 107.556 18.56C108.743 19.2933 109.703 20.2467 110.436 21.42L110.316 18ZM103.596 35.26C104.916 35.26 106.056 34.94 107.016 34.3C107.989 33.6467 108.736 32.7667 109.256 31.66C109.789 30.5533 110.056 29.3333 110.056 28C110.056 26.64 109.789 25.4133 109.256 24.32C108.723 23.2133 107.969 22.34 106.996 21.7C106.036 21.0467 104.903 20.72 103.596 20.72C102.276 20.72 101.076 21.0467 99.9959 21.7C98.9159 22.3533 98.0559 23.2333 97.4159 24.34C96.7893 25.4333 96.4759 26.6533 96.4759 28C96.4759 29.3467 96.8026 30.5733 97.4559 31.68C98.1093 32.7733 98.9759 33.6467 100.056 34.3C101.136 34.94 102.316 35.26 103.596 35.26ZM132.903 18H136.263V38.64C136.263 39.96 135.976 41.1867 135.403 42.32C134.843 43.4667 134.083 44.46 133.123 45.3C132.163 46.1533 131.069 46.8133 129.843 47.28C128.616 47.76 127.336 48 126.003 48C124.616 48 123.276 47.6867 121.983 47.06C120.689 46.4467 119.556 45.62 118.583 44.58C117.623 43.5533 116.929 42.4 116.503 41.12L119.583 39.72C119.836 40.64 120.289 41.4667 120.943 42.2C121.609 42.9467 122.383 43.5333 123.263 43.96C124.156 44.4 125.069 44.62 126.003 44.62C126.883 44.62 127.729 44.4667 128.543 44.16C129.369 43.8533 130.109 43.4267 130.763 42.88C131.429 42.3467 131.949 41.7133 132.323 40.98C132.709 40.26 132.903 39.48 132.903 38.64V34.66C132.223 35.8067 131.323 36.74 130.203 37.46C129.096 38.1667 127.803 38.52 126.323 38.52C124.909 38.52 123.583 38.2467 122.343 37.7C121.103 37.1533 120.016 36.4 119.083 35.44C118.149 34.4667 117.416 33.3467 116.883 32.08C116.349 30.8133 116.083 29.4533 116.083 28C116.083 26.5467 116.349 25.1867 116.883 23.92C117.416 22.64 118.149 21.52 119.083 20.56C120.016 19.5867 121.103 18.8267 122.343 18.28C123.583 17.7333 124.909 17.46 126.323 17.46C127.803 17.46 129.096 17.8133 130.203 18.52C131.323 19.2267 132.223 20.16 132.903 21.32V18ZM126.343 35.26C127.636 35.26 128.756 34.9267 129.703 34.26C130.663 33.5933 131.403 32.7067 131.923 31.6C132.443 30.4933 132.703 29.2933 132.703 28C132.703 26.6667 132.436 25.4533 131.903 24.36C131.383 23.2533 130.643 22.3733 129.683 21.72C128.736 21.0533 127.623 20.72 126.343 20.72C125.089 20.72 123.943 21.0467 122.903 21.7C121.863 22.3533 121.036 23.2333 120.423 24.34C119.823 25.4333 119.523 26.6533 119.523 28C119.523 29.3467 119.829 30.5733 120.443 31.68C121.069 32.7733 121.896 33.6467 122.923 34.3C123.963 34.94 125.103 35.26 126.343 35.26ZM149.598 38.52C147.758 38.52 146.078 38.0467 144.558 37.1C143.052 36.1533 141.845 34.8867 140.938 33.3C140.045 31.7 139.598 29.9333 139.598 28C139.598 26.5333 139.858 25.1667 140.378 23.9C140.898 22.62 141.612 21.5 142.518 20.54C143.438 19.5667 144.505 18.8067 145.718 18.26C146.932 17.7133 148.225 17.44 149.598 17.44C151.105 17.44 152.485 17.7467 153.738 18.36C155.005 18.96 156.085 19.8 156.978 20.88C157.885 21.96 158.558 23.2133 158.998 24.64C159.452 26.0667 159.618 27.5933 159.498 29.22H143.178C143.338 30.3533 143.712 31.3667 144.298 32.26C144.885 33.14 145.632 33.84 146.538 34.36C147.458 34.88 148.478 35.1467 149.598 35.16C150.798 35.16 151.885 34.8533 152.858 34.24C153.832 33.6133 154.618 32.76 155.218 31.68L158.638 32.48C157.838 34.2533 156.632 35.7067 155.018 36.84C153.405 37.96 151.598 38.52 149.598 38.52ZM143.078 26.58H156.118C156.012 25.46 155.652 24.44 155.038 23.52C154.425 22.5867 153.645 21.84 152.698 21.28C151.752 20.72 150.718 20.44 149.598 20.44C148.478 20.44 147.452 20.7133 146.518 21.26C145.585 21.8067 144.812 22.5467 144.198 23.48C143.598 24.4 143.225 25.4333 143.078 26.58Z" fill="#63C5DA"/>
<path d="M172.752 38V10H182.412C183.798 10 185.058 10.2867 186.192 10.86C187.338 11.42 188.245 12.24 188.912 13.32C189.578 14.4 189.912 15.6933 189.912 17.2C189.912 18.0133 189.772 18.8 189.492 19.56C189.225 20.3067 188.852 20.9533 188.372 21.5C187.905 22.0333 187.372 22.3933 186.772 22.58C187.612 22.7933 188.325 23.1733 188.912 23.72C189.498 24.2533 189.972 24.88 190.332 25.6C190.705 26.32 190.972 27.0733 191.132 27.86C191.292 28.6467 191.372 29.4067 191.372 30.14C191.372 31.6867 191.018 33.0533 190.312 34.24C189.618 35.4133 188.685 36.3333 187.512 37C186.338 37.6667 185.045 38 183.632 38H172.752ZM176.112 35.04H183.332C184.252 35.04 185.085 34.8067 185.832 34.34C186.592 33.86 187.198 33.2067 187.652 32.38C188.105 31.5533 188.332 30.62 188.332 29.58C188.332 28.66 188.105 27.7933 187.652 26.98C187.198 26.1533 186.592 25.4867 185.832 24.98C185.085 24.4733 184.252 24.22 183.332 24.22H176.112V35.04ZM176.112 21.32H182.092C183.318 21.32 184.365 20.96 185.232 20.24C186.112 19.5067 186.552 18.4867 186.552 17.18C186.552 15.7667 186.112 14.7133 185.232 14.02C184.365 13.3133 183.318 12.96 182.092 12.96H176.112V21.32ZM194.1 30.4V18H197.46V29.66C197.46 30.6733 197.707 31.5933 198.2 32.42C198.693 33.2467 199.353 33.9067 200.18 34.4C201.02 34.88 201.94 35.12 202.94 35.12C203.953 35.12 204.867 34.88 205.68 34.4C206.507 33.9067 207.167 33.2467 207.66 32.42C208.153 31.5933 208.4 30.6733 208.4 29.66V18H211.76L211.78 38H208.42L208.4 35.46C207.693 36.3933 206.8 37.14 205.72 37.7C204.64 38.2467 203.473 38.52 202.22 38.52C200.727 38.52 199.36 38.16 198.12 37.44C196.893 36.7067 195.913 35.7267 195.18 34.5C194.46 33.2733 194.1 31.9067 194.1 30.4ZM231.223 18H234.583V38.64C234.583 39.96 234.296 41.1867 233.723 42.32C233.163 43.4667 232.403 44.46 231.443 45.3C230.483 46.1533 229.39 46.8133 228.163 47.28C226.936 47.76 225.656 48 224.323 48C222.936 48 221.596 47.6867 220.303 47.06C219.01 46.4467 217.876 45.62 216.903 44.58C215.943 43.5533 215.25 42.4 214.823 41.12L217.903 39.72C218.156 40.64 218.61 41.4667 219.263 42.2C219.93 42.9467 220.703 43.5333 221.583 43.96C222.476 44.4 223.39 44.62 224.323 44.62C225.203 44.62 226.05 44.4667 226.863 44.16C227.69 43.8533 228.43 43.4267 229.083 42.88C229.75 42.3467 230.27 41.7133 230.643 40.98C231.03 40.26 231.223 39.48 231.223 38.64V34.66C230.543 35.8067 229.643 36.74 228.523 37.46C227.416 38.1667 226.123 38.52 224.643 38.52C223.23 38.52 221.903 38.2467 220.663 37.7C219.423 37.1533 218.336 36.4 217.403 35.44C216.47 34.4667 215.736 33.3467 215.203 32.08C214.67 30.8133 214.403 29.4533 214.403 28C214.403 26.5467 214.67 25.1867 215.203 23.92C215.736 22.64 216.47 21.52 217.403 20.56C218.336 19.5867 219.423 18.8267 220.663 18.28C221.903 17.7333 223.23 17.46 224.643 17.46C226.123 17.46 227.416 17.8133 228.523 18.52C229.643 19.2267 230.543 20.16 231.223 21.32V18ZM224.663 35.26C225.956 35.26 227.076 34.9267 228.023 34.26C228.983 33.5933 229.723 32.7067 230.243 31.6C230.763 30.4933 231.023 29.2933 231.023 28C231.023 26.6667 230.756 25.4533 230.223 24.36C229.703 23.2533 228.963 22.3733 228.003 21.72C227.056 21.0533 225.943 20.72 224.663 20.72C223.41 20.72 222.263 21.0467 221.223 21.7C220.183 22.3533 219.356 23.2333 218.743 24.34C218.143 25.4333 217.843 26.6533 217.843 28C217.843 29.3467 218.15 30.5733 218.763 31.68C219.39 32.7733 220.216 33.6467 221.243 34.3C222.283 34.94 223.423 35.26 224.663 35.26ZM245.492 38.38C244.412 38.34 243.359 38.14 242.332 37.78C241.319 37.4067 240.426 36.9067 239.652 36.28C238.892 35.64 238.339 34.9067 237.992 34.08L240.872 32.84C241.072 33.2933 241.432 33.72 241.952 34.12C242.472 34.52 243.072 34.84 243.752 35.08C244.432 35.32 245.119 35.44 245.812 35.44C246.546 35.44 247.232 35.3267 247.872 35.1C248.512 34.8733 249.032 34.54 249.432 34.1C249.846 33.6467 250.052 33.1067 250.052 32.48C250.052 31.8133 249.826 31.2933 249.372 30.92C248.932 30.5333 248.372 30.2333 247.692 30.02C247.026 29.7933 246.346 29.58 245.652 29.38C244.279 29.0333 243.052 28.62 241.972 28.14C240.892 27.6467 240.039 27.0267 239.412 26.28C238.799 25.52 238.492 24.5533 238.492 23.38C238.492 22.14 238.832 21.0667 239.512 20.16C240.206 19.2533 241.112 18.5533 242.232 18.06C243.352 17.5667 244.552 17.32 245.832 17.32C247.446 17.32 248.919 17.6667 250.252 18.36C251.586 19.0533 252.579 19.9933 253.232 21.18L250.532 22.76C250.306 22.28 249.959 21.86 249.492 21.5C249.026 21.1267 248.492 20.8333 247.892 20.62C247.292 20.4067 246.679 20.2933 246.052 20.28C245.279 20.2533 244.552 20.3533 243.872 20.58C243.206 20.8067 242.666 21.1533 242.252 21.62C241.852 22.0733 241.652 22.64 241.652 23.32C241.652 23.9867 241.866 24.4933 242.292 24.84C242.732 25.1867 243.299 25.4667 243.992 25.68C244.699 25.88 245.466 26.1133 246.292 26.38C247.506 26.7667 248.639 27.2133 249.692 27.72C250.746 28.2267 251.592 28.86 252.232 29.62C252.886 30.38 253.206 31.32 253.192 32.44C253.192 33.6667 252.826 34.74 252.092 35.66C251.359 36.5667 250.406 37.26 249.232 37.74C248.072 38.22 246.826 38.4333 245.492 38.38Z" fill="#FA8128"/>
</svg>
